<?xml version="1.0" encoding="UTF-8"?>
<svg id="Layer_1" data-name="Layer 1" xmlns="http://www.w3.org/2000/svg" viewBox="0 0 25 25">
  <defs>
    <style>
      .cls-1 {
        stroke: #695097;
      }

      .cls-1, .cls-2, .cls-3 {
        fill: none;
        stroke-miterlimit: 10;
      }

      .cls-1, .cls-3 {
        fill-rule: evenodd;
      }

      .cls-2, .cls-3 {
        stroke: #2e273c;
      }
    </style>
  </defs>
  <path class="cls-1" d="m16.79,9.88v10.6c0,.67-.55,1.23-1.22,1.23H6.25c-.68,0-1.23-.56-1.23-1.23v-11.84"/>
  <path class="cls-1" d="m16.79,19.26h1.41c1.43,0,2.6-1.16,2.6-2.6v-3.26c0-1.43-1.17-2.59-2.6-2.59h-1.41"/>
  <path class="cls-3" d="m10.6,9.99c0,.39.11.78.35,1.07.49.59,1.24.97,2.06.97,1.21,0,2.29-.46,2.61-1.58.04,0,.03-.34.07-.34,1.49,0,2.68-1.2,2.68-2.68s-1.19-2.67-2.67-2.68c-.45-.87-1.36-1.46-2.4-1.46-.69,0-1.32.26-1.8.69-.42-.26-.93-.43-1.47-.43-.8,0-1.53.36-2.02.92-.65-.29-1.42-.36-2.21-.02s-1.35,1.02-1.54,1.83c-.21.9.05,1.76.58,2.37h4.41c.74,0,1.34.6,1.34,1.34h0Z"/>
  <line class="cls-2" x1="8.45" y1="13.72" x2="8.45" y2="18.98"/>
  <line class="cls-2" x1="10.9" y1="13.72" x2="10.9" y2="18.98"/>
  <line class="cls-2" x1="13.36" y1="13.72" x2="13.36" y2="18.98"/>
</svg>