<?xml version="1.0" encoding="UTF-8"?>
<svg id="Layer_1" data-name="Layer 1" xmlns="http://www.w3.org/2000/svg" viewBox="0 0 25 25">
  <defs>
    <style>
      .cls-1 {
        stroke: #695097;
        stroke-miterlimit: 10;
      }

      .cls-1, .cls-2 {
        fill: none;
        fill-rule: evenodd;
      }

      .cls-2 {
        stroke: #2e273c;
        stroke-linejoin: round;
      }
    </style>
  </defs>
  <g>
    <path class="cls-1" d="m15.97,9.97v10.6c0,.67-.55,1.23-1.22,1.23h-7.31c-.68,0-1.23-.56-1.23-1.23v-11.84"/>
    <path class="cls-1" d="m15.97,19.36h1.41c1.43,0,2.6-1.16,2.6-2.6v-3.26c0-1.43-1.17-2.59-2.6-2.59h-1.41"/>
  </g>
  <path class="cls-2" d="m7.21,8.75h2.16c.41,0,.79.29.84.69.12,1.07.77,2.14,2.3,2.09,1.82.08,1.96-2.78,1.96-2.78.37.63.73,1.05,1.52,1.05,1.02,0,1.83-.91,1.78-1.94-.04-.82-.32-1.31-1.03-1.31h0c0-2.4-2.51-2.85-3.78-1.45h0c-.45-3.05-5.38-1.66-4.28.82-.99-2.23-3.65-.9-3.65,1.14,0,1.21.98,1.69,2.19,1.69"/>
</svg>