<?xml version="1.0" encoding="UTF-8"?>
<svg id="Layer_1" data-name="Layer 1" xmlns="http://www.w3.org/2000/svg" viewBox="0 0 25 25">
  <defs>
    <style>
      .cls-1 {
        stroke: #2e273c;
      }

      .cls-1, .cls-2 {
        fill: none;
        stroke-miterlimit: 10;
      }

      .cls-2 {
        stroke: #695097;
      }
    </style>
  </defs>
  <line class="cls-1" x1="8.07" y1="6.26" x2="4.58" y2="2.81"/>
  <path class="cls-1" d="m15.84,6.6c-.02-.15,0-.19,0-.34,0-1.87,1.52-3.39,3.4-3.39s3.39,1.52,3.39,3.39-1.52,3.4-3.39,3.4c-.69,0-1.33-.2-1.86-.55"/>
  <path class="cls-2" d="m12.25,22.19h-3.29c-.15,0-.23-.18-.13-.3l2.08-2.27v-6.72l-6.11-6.5c-.05-.05-.01-.14.06-.14h14.57c.08,0,.12.1.07.15l-6.1,6.48v6.72s2.07,2.26,2.07,2.26c.11.12.02.3-.13.3h-3.28"/>
  <line class="cls-2" x1="17.74" y1="8.27" x2="6.56" y2="8.27"/>
</svg>