<svg width="49" height="48" viewBox="0 0 49 48" fill="none" xmlns="http://www.w3.org/2000/svg">
<path d="M36.75 8H34.75V6C34.75 5.46957 34.5393 4.96086 34.1642 4.58579C33.7891 4.21071 33.2804 4 32.75 4C32.2196 4 31.7109 4.21071 31.3358 4.58579C30.9607 4.96086 30.75 5.46957 30.75 6V8H18.75V6C18.75 5.46957 18.5393 4.96086 18.1642 4.58579C17.7891 4.21071 17.2804 4 16.75 4C16.2196 4 15.7109 4.21071 15.3358 4.58579C14.9607 4.96086 14.75 5.46957 14.75 6V8H12.75C11.1587 8 9.63258 8.63214 8.50736 9.75736C7.38214 10.8826 6.75 12.4087 6.75 14V38C6.75 39.5913 7.38214 41.1174 8.50736 42.2426C9.63258 43.3679 11.1587 44 12.75 44H36.75C38.3413 44 39.8674 43.3679 40.9926 42.2426C42.1179 41.1174 42.75 39.5913 42.75 38V14C42.75 12.4087 42.1179 10.8826 40.9926 9.75736C39.8674 8.63214 38.3413 8 36.75 8V8ZM16.75 34C16.3544 34 15.9678 33.8827 15.6389 33.6629C15.31 33.4432 15.0536 33.1308 14.9022 32.7654C14.7509 32.3999 14.7113 31.9978 14.7884 31.6098C14.8656 31.2219 15.0561 30.8655 15.3358 30.5858C15.6155 30.3061 15.9719 30.1156 16.3598 30.0384C16.7478 29.9613 17.1499 30.0009 17.5154 30.1522C17.8808 30.3036 18.1932 30.56 18.4129 30.8889C18.6327 31.2178 18.75 31.6044 18.75 32C18.75 32.5304 18.5393 33.0391 18.1642 33.4142C17.7891 33.7893 17.2804 34 16.75 34V34ZM32.75 34H24.75C24.2196 34 23.7109 33.7893 23.3358 33.4142C22.9607 33.0391 22.75 32.5304 22.75 32C22.75 31.4696 22.9607 30.9609 23.3358 30.5858C23.7109 30.2107 24.2196 30 24.75 30H32.75C33.2804 30 33.7891 30.2107 34.1642 30.5858C34.5393 30.9609 34.75 31.4696 34.75 32C34.75 32.5304 34.5393 33.0391 34.1642 33.4142C33.7891 33.7893 33.2804 34 32.75 34ZM38.75 22H10.75V14C10.75 13.4696 10.9607 12.9609 11.3358 12.5858C11.7109 12.2107 12.2196 12 12.75 12H14.75V14C14.75 14.5304 14.9607 15.0391 15.3358 15.4142C15.7109 15.7893 16.2196 16 16.75 16C17.2804 16 17.7891 15.7893 18.1642 15.4142C18.5393 15.0391 18.75 14.5304 18.75 14V12H30.75V14C30.75 14.5304 30.9607 15.0391 31.3358 15.4142C31.7109 15.7893 32.2196 16 32.75 16C33.2804 16 33.7891 15.7893 34.1642 15.4142C34.5393 15.0391 34.75 14.5304 34.75 14V12H36.75C37.2804 12 37.7891 12.2107 38.1642 12.5858C38.5393 12.9609 38.75 13.4696 38.75 14V22Z" fill="#2e273c"/>
</svg>
