<svg width="34" height="34" viewBox="0 0 34 34" fill="none" xmlns="http://www.w3.org/2000/svg">
<path d="M17.0007 0.333008C13.7043 0.333008 10.482 1.311 7.74119 3.142C5.00029 4.974 2.86409 7.57701 1.60269 10.622C0.341187 13.668 0.0111895 17.019 0.65419 20.252C1.29729 23.485 2.88469 26.454 5.21559 28.785C7.54639 31.116 10.5161 32.703 13.7492 33.347C16.9822 33.99 20.3333 33.66 23.3787 32.398C26.4242 31.137 29.0271 29 30.8585 26.26C32.6899 23.519 33.6673 20.297 33.6673 17C33.6673 14.811 33.2362 12.644 32.3987 10.622C31.5611 8.60001 30.3334 6.763 28.7858 5.215C27.2381 3.667 25.4008 2.43999 23.3787 1.60199C21.3566 0.76499 19.1894 0.333008 17.0007 0.333008ZM24.1673 13.017L16.5507 23.017C16.3954 23.219 16.196 23.382 15.9678 23.495C15.7395 23.607 15.4885 23.666 15.234 23.667C14.9808 23.668 14.7307 23.612 14.5026 23.502C14.2744 23.392 14.0743 23.232 13.9173 23.033L9.85069 17.85C9.71609 17.677 9.61679 17.48 9.55859 17.268C9.50049 17.057 9.48439 16.836 9.51149 16.619C9.53859 16.401 9.60829 16.191 9.71649 16.001C9.82469 15.81 9.96939 15.643 10.1423 15.508C10.4915 15.237 10.9344 15.115 11.3736 15.169C11.591 15.196 11.801 15.266 11.9915 15.374C12.1821 15.483 12.3494 15.627 12.484 15.8L15.2007 19.267L21.5007 10.933C21.6342 10.758 21.8009 10.611 21.9912 10.501C22.1816 10.39 22.3919 10.318 22.6101 10.288C22.8283 10.259 23.0502 10.273 23.263 10.329C23.4759 10.386 23.6756 10.483 23.8507 10.617C24.0258 10.75 24.1728 10.917 24.2835 11.107C24.3942 11.298 24.4663 11.508 24.4957 11.726C24.5251 11.944 24.5112 12.166 24.4549 12.379C24.3986 12.592 24.3008 12.792 24.1673 12.967V13.017Z" fill="#2e273c"/>
</svg>
