<svg width="49" height="48" viewBox="0 0 49 48" fill="none" xmlns="http://www.w3.org/2000/svg">
<path d="M24.25 4C20.2944 4 16.4276 5.17298 13.1386 7.37061C9.84962 9.56824 7.28617 12.6918 5.77242 16.3463C4.25867 20.0009 3.8626 24.0222 4.6343 27.9018C5.40601 31.7814 7.31082 35.3451 10.1079 38.1421C12.9049 40.9392 16.4686 42.844 20.3482 43.6157C24.2278 44.3874 28.2492 43.9913 31.9037 42.4776C35.5582 40.9638 38.6818 38.4004 40.8794 35.1114C43.077 31.8224 44.25 27.9556 44.25 24C44.25 21.3736 43.7327 18.7728 42.7276 16.3463C41.7225 13.9198 40.2493 11.715 38.3921 9.85786C36.535 8.00069 34.3302 6.5275 31.9037 5.52241C29.4772 4.51732 26.8764 4 24.25 4V4ZM32.85 19.22L23.71 31.22C23.5237 31.462 23.2844 31.6582 23.0105 31.7934C22.7367 31.9286 22.4354 31.9993 22.13 32C21.8262 32.0016 21.5261 31.934 21.2523 31.8024C20.9785 31.6707 20.7384 31.4784 20.55 31.24L15.67 25.02C15.5085 24.8125 15.3894 24.5752 15.3196 24.3217C15.2498 24.0682 15.2305 23.8034 15.263 23.5425C15.2955 23.2816 15.3791 23.0296 15.509 22.801C15.6389 22.5723 15.8125 22.3715 16.02 22.21C16.4391 21.8838 16.9705 21.7374 17.4975 21.803C17.7584 21.8355 18.0104 21.9191 18.239 22.049C18.4677 22.1789 18.6685 22.3525 18.83 22.56L22.09 26.72L29.65 16.72C29.8102 16.5099 30.0103 16.3334 30.2387 16.2006C30.4671 16.0678 30.7194 15.9812 30.9813 15.946C31.2432 15.9107 31.5094 15.9273 31.7648 15.9949C32.0203 16.0625 32.2599 16.1798 32.47 16.34C32.6801 16.5002 32.8566 16.7002 32.9894 16.9287C33.1222 17.1571 33.2088 17.4094 33.2441 17.6713C33.2793 17.9332 33.2627 18.1994 33.1951 18.4548C33.1275 18.7103 33.0102 18.9499 32.85 19.16V19.22Z" fill="#2e273c"/>
</svg>
