<svg width="24" height="25" viewBox="0 0 24 25" fill="none" xmlns="http://www.w3.org/2000/svg">
<path d="M11.6676 16.5C11.4922 16.501 11.3184 16.4674 11.156 16.4011C10.9937 16.3348 10.846 16.2371 10.7215 16.1136L5.39185 10.7839C5.26762 10.6597 5.16907 10.5122 5.10184 10.3499C5.03461 10.1875 5 10.0136 5 9.83787C5 9.66218 5.03461 9.48821 5.10184 9.32589C5.16907 9.16357 5.26762 9.01609 5.39185 8.89185C5.51609 8.76762 5.66357 8.66907 5.82589 8.60184C5.98821 8.5346 6.16218 8.5 6.33787 8.5C6.51357 8.5 6.68754 8.5346 6.84986 8.60184C7.01217 8.66907 7.15966 8.76762 7.28389 8.89185L11.6676 13.3022L16.0645 9.06507C16.1871 8.92878 16.3365 8.81924 16.5033 8.74331C16.6702 8.66738 16.8509 8.62669 17.0342 8.62379C17.2174 8.62088 17.3993 8.65583 17.5685 8.72643C17.7377 8.79704 17.8904 8.90179 18.0173 9.03413C18.1441 9.16647 18.2422 9.32356 18.3056 9.49557C18.3689 9.66758 18.3961 9.8508 18.3854 10.0338C18.3747 10.2168 18.3264 10.3956 18.2434 10.5591C18.1605 10.7225 18.0447 10.8671 17.9033 10.9838L12.5736 16.1269C12.3299 16.3618 12.006 16.4952 11.6676 16.5Z" fill="#222222"/>
</svg>
