<?xml version="1.0" encoding="UTF-8"?>
<svg id="Layer_1" data-name="Layer 1" xmlns="http://www.w3.org/2000/svg" viewBox="0 0 25 25">
  <defs>
    <style>
      .cls-1 {
        stroke: #2e273c;
      }

      .cls-1, .cls-2 {
        fill: none;
        stroke-miterlimit: 10;
      }

      .cls-2 {
        stroke: #695097;
      }
    </style>
  </defs>
  <g>
    <path class="cls-2" d="m11.08,19.14h-5.64v-1.26c0-.06,0-.12.01-.18.04-1.63.68-3.11,1.69-4.19,1.04-1.11,2.47-1.78,4.04-1.78h.61c.88,0,1.71.21,2.45.58"/>
    <path class="cls-2" d="m14.59,7.09c0,1.6-1.36,2.89-3.03,2.89h-.14c-1.67,0-3.03-1.29-3.03-2.89s1.36-2.88,3.03-2.88h.14c1.67,0,3.03,1.29,3.03,2.88Z"/>
  </g>
  <path class="cls-1" d="m15.27,13.52c.34-.37.93-.37,1.27,0l.32.35c.17.19.42.29.68.28l.47-.02c.51-.02.92.39.9.9l-.02.47c-.01.26.09.5.28.68l.35.32c.37.34.37.93,0,1.27l-.35.32c-.19.17-.29.42-.28.68l.02.47c.02.51-.39.92-.9.9l-.47-.02c-.26-.01-.5.09-.68.28l-.32.35c-.34.37-.93.37-1.27,0l-.32-.35c-.17-.19-.42-.29-.68-.28l-.47.02c-.51.02-.92-.39-.9-.9l.02-.47c.01-.26-.09-.5-.28-.68l-.35-.32c-.37-.34-.37-.93,0-1.27l.35-.32c.19-.17.29-.42.28-.68l-.02-.47c-.02-.51.39-.92.9-.9l.47.02c.26.01.5-.09.68-.28l.32-.35Z"/>
  <circle class="cls-1" cx="15.91" cy="17.12" r="1.29"/>
</svg>