<svg width="49" height="48" viewBox="0 0 49 48" fill="none" xmlns="http://www.w3.org/2000/svg">
<path d="M43.4406 23.16L30.6006 10.34C30.2735 10.011 29.8422 9.80597 29.3806 9.75998L10.6806 7.99998C10.3877 7.97304 10.0924 8.01105 9.81582 8.11131C9.53926 8.21156 9.28822 8.37159 9.08059 8.57998C8.8722 8.78761 8.71217 9.03865 8.61192 9.31521C8.51166 9.59177 8.47365 9.88705 8.50059 10.18L10.2606 28.88C10.3066 29.3416 10.5116 29.7729 10.8406 30.1L23.6606 42.94C24.3482 43.6182 25.2748 43.9989 26.2406 44C27.2003 43.9979 28.1204 43.617 28.8006 42.94L43.4406 28.3C44.1209 27.6177 44.5029 26.6935 44.5029 25.73C44.5029 24.7665 44.1209 23.8423 43.4406 23.16V23.16ZM23.6206 23.16C23.2012 23.5799 22.6666 23.866 22.0846 23.9821C21.5026 24.0981 20.8992 24.0389 20.3508 23.812C19.8024 23.585 19.3336 23.2005 19.0038 22.7071C18.674 22.2137 18.498 21.6335 18.498 21.04C18.498 20.4465 18.674 19.8663 19.0038 19.3729C19.3336 18.8795 19.8024 18.4949 20.3508 18.268C20.8992 18.041 21.5026 17.9818 22.0846 18.0979C22.6666 18.214 23.2012 18.5001 23.6206 18.92C24.1751 19.4782 24.4863 20.2331 24.4863 21.02C24.4863 21.8068 24.1751 22.5617 23.6206 23.12V23.16Z" fill="#2e273c"/>
</svg>
