<svg width="19" height="12" viewBox="0 0 19 12" fill="none" xmlns="http://www.w3.org/2000/svg">
<path d="M9.62702 0.666369C9.86082 0.665017 10.0926 0.709832 10.309 0.798242C10.5255 0.886652 10.7224 1.01692 10.8884 1.18157L17.9946 8.28782C18.1603 8.45346 18.2917 8.65011 18.3813 8.86653C18.4709 9.08296 18.5171 9.31492 18.5171 9.54918C18.5171 9.78343 18.4709 10.0154 18.3813 10.2318C18.2917 10.4482 18.1603 10.6449 17.9946 10.8105C17.829 10.9762 17.6323 11.1076 17.4159 11.1972C17.1995 11.2869 16.9675 11.333 16.7333 11.333C16.499 11.333 16.267 11.2869 16.0506 11.1972C15.8342 11.1076 15.6375 10.9762 15.4719 10.8105L9.62702 4.93012L3.76436 10.5796C3.60093 10.7613 3.40177 10.9074 3.17932 11.0086C2.95687 11.1098 2.71593 11.1641 2.47156 11.168C2.22718 11.1718 1.98464 11.1252 1.7591 11.0311C1.53355 10.937 1.32986 10.7973 1.16076 10.6208C0.991655 10.4444 0.860776 10.2349 0.776313 10.0056C0.69185 9.77624 0.655617 9.53193 0.669879 9.28795C0.684141 9.04396 0.748593 8.80554 0.859203 8.5876C0.969812 8.36966 1.1242 8.17689 1.31271 8.02133L8.41895 1.16381C8.74384 0.850571 9.17576 0.672722 9.62702 0.666369Z" fill="#222222"/>
</svg>
