<svg width="19" height="12" viewBox="0 0 19 12" fill="none" xmlns="http://www.w3.org/2000/svg">
<path d="M9.55658 11.3336C9.32277 11.335 9.091 11.2902 8.87455 11.2018C8.6581 11.1133 8.46122 10.9831 8.29522 10.8184L1.18898 3.71218C1.02333 3.54654 0.891936 3.34989 0.80229 3.13347C0.712645 2.91704 0.666504 2.68508 0.666504 2.45082C0.666504 2.21657 0.712645 1.9846 0.80229 1.76818C0.891936 1.55175 1.02333 1.35511 1.18898 1.18946C1.35462 1.02382 1.55127 0.892423 1.76769 0.802777C1.98412 0.713131 2.21608 0.666992 2.45033 0.666992C2.68459 0.666992 2.91655 0.713131 3.13298 0.802777C3.3494 0.892423 3.54605 1.02382 3.71169 1.18946L9.55658 7.06988L15.4192 1.42042C15.5827 1.23869 15.7818 1.09264 16.0043 0.991404C16.2267 0.890165 16.4677 0.835914 16.712 0.832042C16.9564 0.82817 17.199 0.874761 17.4245 0.968903C17.65 1.06304 17.8537 1.20271 18.0228 1.37917C18.1919 1.55562 18.3228 1.76507 18.4073 1.99442C18.4917 2.22376 18.528 2.46807 18.5137 2.71205C18.4995 2.95604 18.435 3.19446 18.3244 3.4124C18.2138 3.63034 18.0594 3.82311 17.8709 3.97866L10.7646 10.8362C10.4398 11.1494 10.0078 11.3273 9.55658 11.3336Z" fill="#222222"/>
</svg>
