<svg xmlns="http://www.w3.org/2000/svg" viewBox="0 0 167.2 3.17">
              <clipPath id="blob" clipPathUnits="objectBoundingBox">
                <path
                  d="M167.2 0c-6.6 3.5-9.2 4.9 0 0Z"
                  style="fill:none"
                ></path>
                <path d="M1 .5v.07C1 .61.98.65.96.69.93.74.89.78.84.81.78.85.71.86.64.85.59.85.54.83.5.81.42.77.35.73.27.69.16.64.02.6 0 .46V.42C0 .28.11.23.22.17L.41.08S.48.05.52.03C.58 0 .65 0 .71 0c.04 0 .07.01.11.03.07.03.12.09.15.16.02.05.03.1.03.16"></path>
              </clipPath>
            </svg>