<?xml version="1.0" encoding="UTF-8"?>
<svg id="Layer_1" data-name="Layer 1" xmlns="http://www.w3.org/2000/svg" viewBox="0 0 25 25">
  <defs>
    <style>
      .cls-1 {
        fill: none;
        stroke: #695097;
        stroke-linecap: round;
        stroke-linejoin: round;
      }

      .cls-2 {
        fill: #2e273c;
      }
    </style>
  </defs>
  <circle class="cls-1" cx="12.5" cy="12.5" r="6.43"/>
  <path class="cls-2" d="m11.37,11.03h-.96c.08-.38.2-.72.38-1.03.39-.69.98-1.04,1.76-1.04.59,0,1.07.2,1.46.6.39.4.59.86.59,1.38,0,.39-.08.71-.23.96-.15.25-.36.46-.62.65-.18.13-.33.25-.43.34s-.2.23-.29.4c-.09.18-.14.37-.14.58h-.92c0-.42.07-.76.22-1.01.15-.26.35-.48.6-.67.14-.11.24-.19.31-.25.07-.06.15-.14.24-.25.09-.11.16-.22.2-.34.04-.12.06-.26.06-.41,0-.28-.09-.51-.28-.69-.19-.18-.44-.27-.77-.27-.39,0-.71.18-.95.53-.1.17-.18.34-.23.53Zm.63,4.82c-.11-.13-.17-.29-.17-.48s.06-.35.17-.48.25-.19.42-.19.31.06.42.19c.11.13.17.29.17.48s-.06.35-.17.48c-.11.13-.25.19-.42.19s-.31-.06-.42-.19Z"/>
</svg>