<svg width="49" height="48" viewBox="0 0 49 48" fill="none" xmlns="http://www.w3.org/2000/svg">
<path d="M38.79 9.36C38.3335 9.03102 37.8058 8.8143 37.2498 8.72743C36.6938 8.64056 36.1252 8.68598 35.59 8.86C34.1783 9.25697 32.7162 9.44563 31.25 9.42C29.0832 9.30239 26.9587 8.77294 24.99 7.86C22.5581 6.73526 19.9275 6.10311 17.25 6C11.47 6 9.25003 8 8.85003 8.28C8.65865 8.46758 8.50692 8.69172 8.40385 8.93909C8.30078 9.18646 8.24847 9.45202 8.25003 9.72V40C8.25003 40.5304 8.46075 41.0391 8.83582 41.4142C9.21089 41.7893 9.7196 42 10.25 42C10.7805 42 11.2892 41.7893 11.6642 41.4142C12.0393 41.0391 12.25 40.5304 12.25 40V31.4C13.8437 30.7898 15.545 30.5108 17.25 30.58C19.4169 30.6976 21.5414 31.2271 23.51 32.14C25.942 33.2647 28.5726 33.8969 31.25 34C33.6611 34.0911 36.0595 33.6114 38.25 32.6C38.8404 32.3227 39.341 31.885 39.6946 31.3368C40.0482 30.7887 40.2407 30.1522 40.25 29.5V12.22C40.2493 11.6619 40.1167 11.112 39.863 10.6149C39.6092 10.1179 39.2416 9.68789 38.79 9.36V9.36Z" fill="#22ADC4"/>
</svg>
