<?xml version="1.0" encoding="UTF-8"?>
<svg id="Layer_1" data-name="Layer 1" xmlns="http://www.w3.org/2000/svg" viewBox="0 0 94.01 24.95">
  <defs>
    <style>
      .cls-1 {
        fill: #695097;
      }

      .cls-2 {
        fill: #2e273c;
      }
    </style>
  </defs>
  <g>
    <path class="cls-2" d="m14.67,8.22h1.91l1.98,5.5,1.98-5.5h1.88l-3.15,8.4h-1.43l-3.17-8.4Z"/>
    <path class="cls-2" d="m27.69,13.41c0,.24-.02.46-.05.66h-4.24c.08.4.25.7.51.91s.6.31,1,.31c.27,0,.52-.06.76-.17s.42-.26.52-.43l1.32.81c-.21.39-.55.69-1.02.91s-1,.32-1.62.32c-.87,0-1.6-.3-2.2-.89s-.9-1.33-.9-2.2.3-1.58.89-2.16,1.32-.88,2.18-.88c.8,0,1.47.27,2.02.81s.82,1.21.82,1.99Zm-4.26-.42h2.57c-.04-.29-.17-.54-.41-.73s-.51-.29-.83-.29c-.35,0-.64.09-.87.27s-.38.43-.46.76Z"/>
    <path class="cls-2" d="m31.93,10.61c.75,0,1.35.24,1.78.71s.64,1.13.64,1.97v3.33h-1.69v-3.12c0-.38-.11-.69-.32-.93s-.49-.35-.84-.35-.63.12-.85.35-.32.54-.32.93v3.12h-1.69v-5.89h1.69v.77c.39-.59.92-.89,1.6-.89Z"/>
    <path class="cls-2" d="m39.55,10.72h1.69v5.89h-1.69v-.78c-.37.6-.9.9-1.59.9-.75,0-1.35-.24-1.78-.71s-.65-1.13-.65-1.97v-3.33h1.69v3.11c0,.39.11.7.32.93s.49.35.85.35.63-.12.84-.35.32-.54.32-.93v-3.11Z"/>
    <path class="cls-2" d="m48.08,13.41c0,.24-.02.46-.05.66h-4.24c.08.4.25.7.51.91s.6.31,1,.31c.27,0,.52-.06.76-.17s.42-.26.52-.43l1.32.81c-.21.39-.55.69-1.02.91s-1,.32-1.62.32c-.87,0-1.6-.3-2.2-.89s-.9-1.33-.9-2.2.3-1.58.89-2.16,1.32-.88,2.18-.88c.8,0,1.47.27,2.02.81s.82,1.21.82,1.99Zm-4.26-.42h2.57c-.04-.29-.17-.54-.41-.73s-.51-.29-.83-.29c-.35,0-.64.09-.87.27s-.38.43-.46.76Z"/>
  </g>
  <g>
    <path class="cls-1" d="m49.55,16.62v-8.4h3.23c.74,0,1.37.22,1.9.67s.78.98.78,1.6c0,.36-.1.7-.31,1.02s-.46.55-.78.67c.43.1.78.34,1.05.71s.4.81.4,1.31c0,.68-.26,1.26-.79,1.73s-1.16.7-1.89.7h-3.59Zm2.04-5.1h1.1c.21,0,.38-.07.52-.2s.21-.29.21-.49-.07-.34-.21-.47-.32-.2-.52-.2h-1.1v1.36Zm0,3.15h1.37c.23,0,.42-.08.58-.23s.24-.35.24-.57-.08-.41-.23-.57-.34-.23-.56-.23h-1.39v1.61Z"/>
    <path class="cls-1" d="m57.26,11.47c.58-.59,1.31-.88,2.18-.88s1.6.29,2.19.88.88,1.33.88,2.21c0,.57-.13,1.1-.4,1.56s-.64.83-1.11,1.1-.99.4-1.56.4c-.87,0-1.6-.29-2.18-.87s-.88-1.31-.88-2.19.29-1.62.88-2.21Zm2.18.96c-.34,0-.62.12-.84.35s-.33.53-.33.89.11.64.33.87.5.35.84.35.63-.12.85-.35.34-.52.34-.87-.11-.66-.34-.89-.51-.35-.85-.35Z"/>
    <path class="cls-1" d="m63.98,11.47c.58-.59,1.31-.88,2.18-.88s1.6.29,2.19.88.88,1.33.88,2.21c0,.57-.13,1.1-.4,1.56s-.64.83-1.11,1.1-.99.4-1.56.4c-.87,0-1.6-.29-2.18-.87s-.88-1.31-.88-2.19.29-1.62.88-2.21Zm2.18.96c-.34,0-.62.12-.84.35s-.33.53-.33.89.11.64.33.87.5.35.84.35.63-.12.85-.35.34-.52.34-.87-.11-.66-.34-.89-.51-.35-.85-.35Z"/>
    <path class="cls-1" d="m72.24,16.74c-1.12,0-2.03-.24-2.71-.73l.54-1.34c.57.4,1.23.6,2,.6.22,0,.39-.03.52-.1s.2-.15.2-.25c0-.09-.06-.17-.17-.23s-.26-.11-.44-.16-.38-.08-.6-.13-.44-.11-.66-.2-.42-.19-.6-.31-.33-.29-.45-.51-.18-.48-.18-.77c-.01-.57.21-1.05.67-1.44s1.05-.59,1.76-.59c.96,0,1.73.22,2.31.66l-.53,1.39c-.25-.17-.54-.31-.89-.42s-.67-.17-.98-.17c-.17,0-.31.03-.41.09s-.15.14-.15.24c0,.08.04.15.13.21s.21.12.35.16.31.09.5.14.38.11.57.17.38.14.57.24.36.21.5.34.27.29.36.49.14.42.14.67c0,.57-.21,1.04-.66,1.4s-1.01.54-1.72.54Z"/>
    <path class="cls-1" d="m79.25,14.83l.09,1.71c-.26.12-.57.19-.95.19-.73,0-1.33-.22-1.77-.66s-.67-1.05-.67-1.83v-1.69h-1.07v-1.85h1.07v-1.51h1.93v1.51h1.39v1.85h-1.39v1.59c0,.23.08.41.24.56s.35.22.58.22c.19,0,.37-.03.55-.09Z"/>
  </g>
</svg>