<svg width="49" height="48" viewBox="0 0 49 48" fill="none" xmlns="http://www.w3.org/2000/svg">
<path d="M18.75 22C20.3323 22 21.879 21.5308 23.1946 20.6518C24.5102 19.7727 25.5355 18.5233 26.141 17.0615C26.7465 15.5997 26.905 13.9911 26.5963 12.4393C26.2876 10.8874 25.5257 9.46197 24.4069 8.34315C23.288 7.22433 21.8626 6.4624 20.3107 6.15372C18.7589 5.84504 17.1503 6.00347 15.6885 6.60897C14.2267 7.21447 12.9773 8.23985 12.0982 9.55544C11.2192 10.871 10.75 12.4178 10.75 14C10.75 16.1217 11.5929 18.1566 13.0931 19.6569C14.5934 21.1571 16.6283 22 18.75 22ZM34.75 26C35.9367 26 37.0967 25.6481 38.0834 24.9888C39.0701 24.3295 39.8392 23.3925 40.2933 22.2961C40.7474 21.1997 40.8662 19.9933 40.6347 18.8295C40.4032 17.6656 39.8318 16.5965 38.9926 15.7574C38.1535 14.9182 37.0844 14.3468 35.9205 14.1153C34.7567 13.8838 33.5503 14.0026 32.4539 14.4567C31.3575 14.9109 30.4205 15.6799 29.7612 16.6666C29.1019 17.6533 28.75 18.8133 28.75 20C28.75 21.5913 29.3821 23.1174 30.5074 24.2426C31.6326 25.3679 33.1587 26 34.75 26ZM42.75 40C43.2804 40 43.7891 39.7893 44.1642 39.4142C44.5393 39.0391 44.75 38.5304 44.75 38C44.7484 36.1308 44.2229 34.2995 43.2332 32.7138C42.2435 31.1281 40.8292 29.8515 39.1507 29.0289C37.4722 28.2064 35.5968 27.8707 33.7372 28.06C31.8776 28.2493 30.1083 28.956 28.63 30.1C26.671 28.1487 24.1781 26.8212 21.4656 26.2849C18.7532 25.7485 15.9426 26.0274 13.3885 27.0863C10.8343 28.1452 8.65083 29.9367 7.11348 32.2349C5.57614 34.5331 4.75374 37.235 4.75 40C4.75 40.5304 4.96071 41.0391 5.33579 41.4142C5.71086 41.7893 6.21957 42 6.75 42H30.75C31.2804 42 31.7891 41.7893 32.1642 41.4142C32.5393 41.0391 32.75 40.5304 32.75 40" fill="white"/>
</svg>
