<?xml version="1.0" encoding="UTF-8"?>
<svg id="Layer_1" data-name="Layer 1" xmlns="http://www.w3.org/2000/svg" viewBox="0 0 25 25">
  <defs>
    <style>
      .cls-1 {
        stroke: #2e273c;
      }

      .cls-1, .cls-2 {
        fill: none;
        stroke-miterlimit: 10;
      }

      .cls-2 {
        stroke: #695097;
      }
    </style>
  </defs>
  <path class="cls-2" d="m21.5,9.26c0,1.98-1.25,3.68-3,4.29l-.03.19-1.33,7.77H7.86l-1.33-7.77-.03-.19c-1.75-.61-3-2.3-3-4.29,0-2.5,1.99-4.53,4.44-4.53.4,0,.79.06,1.16.15.81-.86,1.96-1.39,3.21-1.39.06,0,.13,0,.19.01.06-.01.13-.01.19-.01,1.25,0,2.4.53,3.21,1.39.37-.1.76-.15,1.16-.15,2.45,0,4.44,2.03,4.44,4.53Z"/>
  <line class="cls-1" x1="9.43" y1="18.35" x2="15.79" y2="18.35"/>
</svg>