<?xml version="1.0" encoding="UTF-8"?>
<svg id="Layer_1" data-name="Layer 1" xmlns="http://www.w3.org/2000/svg" viewBox="0 0 25 25">
  <defs>
    <style>
      .cls-1 {
        stroke: #2e273c;
      }

      .cls-1, .cls-2 {
        fill: none;
        stroke-miterlimit: 10;
      }

      .cls-2 {
        stroke: #695097;
      }
    </style>
  </defs>
  <path class="cls-1" d="m8.87,13.95c-.7-.78-1.54-1.1-2.68-1.1-2.12,0-3.84,1.73-3.84,3.84v.55h5.34"/>
  <path class="cls-1" d="m17.31,17.24h5.34v-.55c0-2.12-1.72-3.84-3.84-3.84-1.14,0-2.06.4-2.76,1.18"/>
  <ellipse class="cls-1" cx="18.85" cy="9.58" rx="1.93" ry="1.83"/>
  <ellipse class="cls-1" cx="6.15" cy="9.58" rx="1.93" ry="1.83"/>
  <path class="cls-2" d="m17.32,16.92v1H7.68v-1c0-.05,0-.09,0-.14.03-1.3.54-2.48,1.35-3.34.82-.88,1.96-1.42,3.22-1.42h.49c1.25,0,2.39.54,3.22,1.42.81.86,1.32,2.03,1.35,3.34,0,.05,0,.09,0,.14Z"/>
  <path class="cls-2" d="m14.97,8.33c0,1.27-1.08,2.3-2.42,2.3h-.11c-1.33,0-2.42-1.03-2.42-2.3s1.08-2.29,2.42-2.29h.11c1.33,0,2.42,1.03,2.42,2.29Z"/>
</svg>