<svg xmlns="http://www.w3.org/2000/svg" xmlns:xlink="http://www.w3.org/1999/xlink" width="1027.469" height="918.747" viewBox="0 0 1027.469 918.747"><defs><clipPath id="a"><rect width="1027.469" height="918.747" fill="#199dd0"/></clipPath></defs><g transform="translate(12585 350)" style="isolation:isolate"><g transform="translate(-12585 -350)"><g clip-path="url(#a)"><path d="M.32,483.373C6.5,624.969,118.693,679,224.824,737.589c65.853,31.728,131.7,63.641,197.554,95.187,36.766,17.676,73.083,36.636,110.653,52.207a404.712,404.712,0,0,0,200.808,31.877A306.51,306.51,0,0,0,841.891,885.3a321.328,321.328,0,0,0,152.56-169.688,450.464,450.464,0,0,0,33.016-170.088q-.189-45.962-.376-91.467l-.45-.089c-.105-25.52-.21-50.946-.312-75.734a567.8,567.8,0,0,0-4.718-73.152A408.826,408.826,0,0,0,982.847,173.9a308.115,308.115,0,0,0-119-131.379c-65.609-38.682-135.7-49.174-209.852-38.7A432.3,432.3,0,0,0,511.566,50.807Q393.591,113.2,275.808,176.615s-1.28.683-1.293.687C161.036,238.094,21.046,283.2,2.878,432.5A250.724,250.724,0,0,0,0,470.016q.031,6.819.32,13.356" transform="translate(0 -0.001)" fill="#463c5a"/></g></g></g></svg>