<?xml version="1.0" encoding="UTF-8"?>
<svg id="Layer_1" data-name="Layer 1" xmlns="http://www.w3.org/2000/svg" viewBox="0 0 25 25">
  <defs>
    <style>
      .cls-1 {
        fill: #695097;
      }

      .cls-2 {
        fill: #2e273c;
      }
    </style>
  </defs>
  <path class="cls-1" d="m10.13,11.55h.95c0,.78.64,1.42,1.42,1.42v.95c-1.31,0-2.37-1.06-2.37-2.37Z"/>
  <path class="cls-1" d="m16.29,6.82h-7.58c-1.5,0-2.37.87-2.37,2.37,0,1.29,1.14,2.76,2.16,3.27l.37.18c.42,1.42,1.65,2.49,3.16,2.68v.98c0,.52-.43.94-.95.94h-.95v.95h4.74v-.95h-.95c-.52,0-.95-.42-.95-.94v-.98c1.51-.19,2.74-1.26,3.16-2.68l.37-.18c1.02-.51,2.16-1.98,2.16-3.27,0-1.5-.87-2.37-2.37-2.37Zm-7.58,4.66c-.74-.49-1.42-1.55-1.42-2.29,0-.98.44-1.42,1.42-1.42v3.71Zm6.63.08c0,1.57-1.27,2.84-2.84,2.84s-2.84-1.27-2.84-2.84v-3.79h5.68v3.79Zm.95-.08v-3.71c.98,0,1.42.44,1.42,1.42,0,.74-.68,1.8-1.42,2.29Z"/>
  <path class="cls-1" d="m12.5,12.97v.95c-1.31,0-2.37-1.06-2.37-2.37h.95c0,.78.64,1.42,1.42,1.42Z"/>
  <path class="cls-2" d="m12.5,12.97v.95c-1.31,0-2.37-1.06-2.37-2.37h.95c0,.78.64,1.42,1.42,1.42Z"/>
</svg>