<?xml version="1.0" encoding="UTF-8"?>
<svg id="Layer_1" data-name="Layer 1" xmlns="http://www.w3.org/2000/svg" viewBox="0 0 25 25">
  <defs>
    <style>
      .cls-1 {
        fill: #695097;
      }

      .cls-2 {
        fill: #2e273c;
      }
    </style>
  </defs>
  <path class="cls-2" d="m18.74,16.21l-1.9-3.28c-.25.44-.57.85-.93,1.2l1.01,1.74-1.22.02c-.25.01-.47.14-.6.35l-.62,1.05-1.07-1.87c-.3.06-.6.09-.92.09-.4,0-.78-.05-1.16-.14.09.02.18.05.27.07l-1.08,1.85-.63-1.05c-.12-.21-.35-.34-.6-.35h-1.21l1-1.74c.09.08.18.16.27.24-.48-.41-.89-.91-1.2-1.46l-1.9,3.28c-.19.34-.08.77.26.96.11.06.23.1.36.1h2.02l1.02,1.73s.08.11.13.15c.13.13.3.2.49.2h.09c.22-.03.41-.16.52-.35l1.36-2.33,1.36,2.36c.11.18.3.31.51.33h.1c.18,0,.36-.07.49-.19.05-.05.09-.1.12-.15l1.03-1.73h2.02c.25,0,.48-.14.61-.36.13-.22.13-.5,0-.72Zm-8.03-1.03c-.19-.08-.38-.15-.56-.26.18.1.37.18.56.26Zm.62.19s-.1-.02-.15-.04c.05.01.1.03.15.04Zm-.15-.04c-.16-.04-.32-.09-.48-.15.16.06.32.11.48.15Zm-1.04-.41c-.28-.15-.55-.33-.79-.53.25.21.51.39.79.53Z"/>
  <path class="cls-1" d="m12.49,5.65c-1.35,0-2.58.55-3.47,1.44-.22.22-.43.47-.61.73-.17.27-.33.55-.45.84-.25.59-.39,1.24-.39,1.92,0,.24.02.48.06.71.01.16.05.32.09.47,0,.01,0,.03.01.04.03.16.08.32.15.48,0,.04.02.08.04.13.07.17.15.34.24.51h0c.31.56.72,1.06,1.2,1.47,0,0,.01-.01.01,0,.24.2.51.38.79.53.7.38,1.5.59,2.34.59.32,0,.62-.03.92-.09.36-.06.7-.17,1.02-.31.22-.1.43-.21.63-.33.31-.18.59-.4.85-.65.36-.35.68-.76.93-1.2h-.01c.09-.18.17-.35.24-.53.01-.03.02-.05.03-.07.05-.13.1-.27.13-.41.03-.08.05-.16.07-.24.02-.08.03-.16.04-.24.03-.11.04-.23.05-.34.02-.17.03-.35.03-.52,0-2.72-2.21-4.93-4.93-4.93Zm.01,8.45c-1.95,0-3.52-1.58-3.52-3.52s1.57-3.52,3.52-3.52,3.52,1.57,3.52,3.52-1.58,3.52-3.52,3.52Z"/>
  <path class="cls-1" d="m7.92,12.41c.07.17.15.34.24.51h0c-.08-.16-.16-.33-.23-.51Z"/>
  <path class="cls-1" d="m7.96,8.66c.12-.29.28-.57.45-.84-.18.27-.33.55-.45.84Z"/>
  <path class="cls-1" d="m16.83,12.91c.09-.17.17-.34.24-.52-.06.18-.15.36-.23.53h-.01Z"/>
</svg>