<?xml version="1.0" encoding="UTF-8"?>
<svg id="Layer_1" data-name="Layer 1" xmlns="http://www.w3.org/2000/svg" viewBox="0 0 25 25">
  <defs>
    <style>
      .cls-1 {
        fill: #695097;
      }

      .cls-1, .cls-2 {
        fill-rule: evenodd;
      }

      .cls-2 {
        fill: #2e273c;
      }
    </style>
  </defs>
  <path class="cls-1" d="m12.5,3.96c1.52,0,3.02.41,4.33,1.18l-.51.87c-1.16-.68-2.49-1.05-3.82-1.05-4.16,0-7.54,3.38-7.54,7.54s3.38,7.54,7.54,7.54,7.54-3.38,7.54-7.54c0-1.34-.36-2.66-1.05-3.83l.87-.51c.78,1.32,1.19,2.82,1.19,4.33,0,4.71-3.83,8.54-8.54,8.54S3.96,17.21,3.96,12.5,7.79,3.96,12.5,3.96Z"/>
  <path class="cls-1" d="m12.5,6.97v1c-2.49,0-4.52,2.03-4.52,4.52s2.03,4.52,4.52,4.52,4.52-2.03,4.52-4.52h1c0,3.05-2.48,5.53-5.53,5.53s-5.53-2.48-5.53-5.53,2.48-5.53,5.53-5.53h0Z"/>
  <path class="cls-1" d="m12.5,9.99v1c-.83,0-1.51.68-1.51,1.51s.68,1.51,1.51,1.51,1.51-.68,1.51-1.51h1c0,1.38-1.13,2.51-2.51,2.51s-2.51-1.13-2.51-2.51,1.13-2.51,2.51-2.51Z"/>
  <polygon class="cls-2" points="20.18 4.1 20.89 4.81 15.72 9.99 18.03 9.99 18.03 10.99 14.01 10.99 14.01 6.97 15.01 6.97 15.01 9.28 20.18 4.1 20.18 4.1"/>
</svg>