<svg width="49" height="48" viewBox="0 0 49 48" fill="none" xmlns="http://www.w3.org/2000/svg">
<path d="M12.6799 38H36.6799L34.0799 40.58C33.7033 40.9566 33.4917 41.4674 33.4917 42C33.4917 42.5326 33.7033 43.0434 34.0799 43.42C34.4565 43.7966 34.9673 44.0082 35.4999 44.0082C36.0325 44.0082 36.5433 43.7966 36.9199 43.42L42.9199 37.42C43.1073 37.2341 43.2561 37.0129 43.3577 36.7692C43.4592 36.5254 43.5115 36.264 43.5115 36C43.5115 35.736 43.4592 35.4746 43.3577 35.2308C43.2561 34.9871 43.1073 34.7659 42.9199 34.58L36.9199 28.58C36.734 28.3925 36.5128 28.2438 36.269 28.1422C36.0253 28.0407 35.7639 27.9884 35.4999 27.9884C35.2359 27.9884 34.9744 28.0407 34.7307 28.1422C34.487 28.2438 34.2658 28.3925 34.0799 28.58C33.8924 28.7659 33.7436 28.9871 33.6421 29.2308C33.5406 29.4746 33.4883 29.736 33.4883 30C33.4883 30.264 33.5406 30.5254 33.6421 30.7692C33.7436 31.0129 33.8924 31.2341 34.0799 31.42L36.6799 34H12.6799C12.2701 34.008 11.8628 33.9351 11.4813 33.7856C11.0997 33.6361 10.7513 33.4129 10.456 33.1288C10.1607 32.8446 9.92423 32.5051 9.76018 32.1295C9.59613 31.7539 9.50768 31.3497 9.49988 30.94V26C9.49988 25.4696 9.28916 24.9609 8.91409 24.5858C8.53902 24.2107 8.03031 24 7.49988 24C6.96944 24 6.46074 24.2107 6.08566 24.5858C5.71059 24.9609 5.49988 25.4696 5.49988 26V30.94C5.50772 31.875 5.69967 32.7993 6.06475 33.6602C6.42983 34.521 6.9609 35.3015 7.62763 35.9571C8.29436 36.6127 9.0837 37.1305 9.95057 37.4811C10.8174 37.8316 11.7449 38.0079 12.6799 38V38ZM12.0799 19.42C12.4565 19.7966 12.9673 20.0082 13.4999 20.0082C14.0325 20.0082 14.5433 19.7966 14.9199 19.42C15.2965 19.0434 15.5081 18.5326 15.5081 18C15.5081 17.4674 15.2965 16.9566 14.9199 16.58L12.3199 14H36.3199C36.7296 13.992 37.1369 14.0649 37.5185 14.2144C37.9001 14.3639 38.2485 14.5871 38.5438 14.8712C38.8391 15.1554 39.0755 15.4949 39.2396 15.8705C39.4036 16.2461 39.4921 16.6503 39.4999 17.06V22C39.4999 22.5304 39.7106 23.0391 40.0857 23.4142C40.4607 23.7893 40.9694 24 41.4999 24C42.0303 24 42.539 23.7893 42.9141 23.4142C43.2892 23.0391 43.4999 22.5304 43.4999 22V17.06C43.492 16.125 43.3001 15.2007 42.935 14.3398C42.5699 13.479 42.0389 12.6985 41.3721 12.0429C40.7054 11.3873 39.9161 10.8695 39.0492 10.5189C38.1823 10.1684 37.2549 9.99209 36.3199 10H12.3199L14.9199 7.42C15.1073 7.23407 15.2561 7.01287 15.3577 6.76915C15.4592 6.52543 15.5115 6.26402 15.5115 6C15.5115 5.73598 15.4592 5.47457 15.3577 5.23085C15.2561 4.98713 15.1073 4.76593 14.9199 4.58C14.734 4.39254 14.5128 4.24375 14.269 4.14222C14.0253 4.04068 13.7639 3.9884 13.4999 3.9884C13.2359 3.9884 12.9744 4.04068 12.7307 4.14222C12.487 4.24375 12.2658 4.39254 12.0799 4.58L6.07988 10.58C5.89242 10.7659 5.74363 10.9871 5.6421 11.2308C5.54056 11.4746 5.48828 11.736 5.48828 12C5.48828 12.264 5.54056 12.5254 5.6421 12.7692C5.74363 13.0129 5.89242 13.2341 6.07988 13.42L12.0799 19.42Z" fill="#2e273c"/>
</svg>
