<?xml version="1.0" encoding="UTF-8"?>
<svg id="Layer_1" data-name="Layer 1" xmlns="http://www.w3.org/2000/svg" viewBox="0 0 25 25">
  <defs>
    <style>
      .cls-1 {
        stroke: #2e273c;
      }

      .cls-1, .cls-2 {
        fill: #2e273c;
      }

      .cls-1, .cls-3 {
        stroke-miterlimit: 10;
        stroke-width: .25px;
      }

      .cls-3 {
        fill: #695097;
        stroke: #695097;
      }
    </style>
  </defs>
  <g>
    <path class="cls-2" d="m11.3,10.99l-2.05-2.06.3-.3-1.7-1.7-.92.92,1.7,1.7.3-.31,2.08,2.08.55.54.31-.3-.57-.57Zm-2.67-2.06l-1.08-1.08.3-.3,1.08,1.08-.3.3Z"/>
    <path class="cls-2" d="m11.56,12.03l-.64-.63-1.99-1.99-.3.31-1.88-1.88,1.1-1.1,1.88,1.88-.3.3,2.62,2.63-.49.47Zm-2.63-2.97l.09.09,2.54,2.53.13-.13-2.62-2.63.3-.3-1.52-1.52-.74.74,1.52,1.52.3-.31Zm-.3.05l-1.26-1.26.48-.48,1.26,1.26-.48.48Zm-.9-1.26l.9.9.12-.12-.9-.9-.12.12Z"/>
  </g>
  <path class="cls-1" d="m18.04,16.49l-2.32-2.31.31-.31-.31-.31-.92.93-1.21-1.21-.33-.34-.31.32,1.54,1.54-.93.92.32.31.3-.31,2.32,2.31c.2.22.48.33.77.33s.56-.11.77-.33c.43-.42.43-1.11,0-1.54Zm-.31,1.24c-.12.12-.29.19-.46.19-.18,0-.34-.07-.46-.19l-2.32-2.32.93-.92,2.31,2.32c.26.25.26.66,0,.92Z"/>
  <path class="cls-3" d="m17.98,8.02l-.12-.29-1,1h-.8s.01-.76.01-.76l1.01-1.01-.29-.13c-.29-.13-.6-.19-.91-.19-.61,0-1.19.24-1.62.67-.63.64-.84,1.56-.54,2.4l-1.85,1.85-.31.3-1.85,1.86c-.25-.09-.51-.14-.78-.14-.61,0-1.19.25-1.62.68-.66.66-.86,1.65-.48,2.52l.13.3,1.01-1.02h.77v.79s-1.01,1-1.01,1l.3.13c.29.12.59.19.91.19.61,0,1.18-.25,1.61-.68.64-.63.84-1.55.54-2.38l1.86-1.85.31-.32,1.85-1.85c.24.09.5.13.77.13.62,0,1.19-.23,1.62-.67.67-.67.86-1.66.48-2.53Zm-.79,2.22c-.35.36-.81.54-1.31.54-.25,0-.5-.04-.74-.14l-.13-.07-4.43,4.44.06.13c.3.7.15,1.51-.39,2.05-.35.35-.82.54-1.31.54-.15,0-.28-.02-.42-.05l.64-.64.02-1.42h-1.39s-.66.68-.66.68c-.14-.62.04-1.28.5-1.74.34-.34.81-.54,1.3-.54.26,0,.51.06.75.16l.13.05,4.43-4.42-.06-.14c-.3-.71-.16-1.51.39-2.05.35-.35.82-.54,1.31-.54.14,0,.28.01.42.04l-.66.67-.02,1.39,1.42-.02.64-.64c.15.61-.03,1.26-.49,1.72Z"/>
</svg>