<svg width="49" height="48" viewBox="0 0 49 48" fill="none" xmlns="http://www.w3.org/2000/svg">
<path d="M43.7007 22.44L34.5007 15.04V10C34.5497 8.98988 34.1961 8.00156 33.5175 7.25173C32.8389 6.5019 31.8907 6.05176 30.8807 6H8.08069C7.07783 6.06192 6.13974 6.51647 5.46965 7.26517C4.79956 8.01387 4.45144 8.99643 4.50069 10V30C4.48213 30.7942 4.70048 31.576 5.12791 32.2456C5.55534 32.9152 6.17249 33.4424 6.90069 33.76C6.53236 34.6611 6.38881 35.6383 6.48242 36.6072C6.57604 37.5762 6.90401 38.5078 7.43803 39.3217C7.97206 40.1356 8.6961 40.8074 9.54769 41.279C10.3993 41.7507 11.3528 42.008 12.3261 42.0289C13.2993 42.0497 14.263 41.8334 15.134 41.3987C16.005 40.964 16.7572 40.3239 17.3256 39.5336C17.894 38.7433 18.2616 37.8266 18.3966 36.8625C18.5316 35.8985 18.4301 34.916 18.1007 34H30.8207C30.4918 34.9063 30.3861 35.8784 30.5126 36.8342C30.639 37.79 30.994 38.7012 31.5473 39.4907C32.1007 40.2802 32.8361 40.9248 33.6914 41.3697C34.5467 41.8147 35.4966 42.047 36.4607 42.047C37.4248 42.047 38.3747 41.8147 39.23 41.3697C40.0853 40.9248 40.8207 40.2802 41.3741 39.4907C41.9274 38.7012 42.2823 37.79 42.4088 36.8342C42.5353 35.8784 42.4296 34.9063 42.1007 34H42.5007C43.0311 34 43.5398 33.7893 43.9149 33.4142C44.29 33.0391 44.5007 32.5304 44.5007 32V24C44.4946 23.6963 44.4193 23.398 44.2807 23.1277C44.1421 22.8574 43.9438 22.6222 43.7007 22.44V22.44ZM40.5007 24.96V30H34.5007V20.16L40.5007 24.96ZM14.5007 36C14.5007 36.3956 14.3834 36.7822 14.1636 37.1111C13.9439 37.44 13.6315 37.6964 13.2661 37.8478C12.9006 37.9991 12.4985 38.0387 12.1105 37.9616C11.7225 37.8844 11.3662 37.6939 11.0865 37.4142C10.8068 37.1345 10.6163 36.7781 10.5391 36.3902C10.4619 36.0022 10.5016 35.6001 10.6529 35.2346C10.8043 34.8692 11.0607 34.5568 11.3896 34.3371C11.7184 34.1173 12.1051 34 12.5007 34C13.0311 34 13.5398 34.2107 13.9149 34.5858C14.29 34.9609 14.5007 35.4696 14.5007 36ZM38.5007 36C38.5007 36.3956 38.3834 36.7822 38.1636 37.1111C37.9439 37.44 37.6315 37.6964 37.2661 37.8478C36.9006 37.9991 36.4985 38.0387 36.1105 37.9616C35.7225 37.8844 35.3662 37.6939 35.0865 37.4142C34.8068 37.1345 34.6163 36.7781 34.5391 36.3902C34.4619 36.0022 34.5016 35.6001 34.6529 35.2346C34.8043 34.8692 35.0607 34.5568 35.3895 34.3371C35.7184 34.1173 36.1051 34 36.5007 34C37.0311 34 37.5398 34.2107 37.9149 34.5858C38.29 34.9609 38.5007 35.4696 38.5007 36Z" fill="#2e273c"/>
</svg>
